<mxfile host="65bd71144e">
    <diagram id="bg_41D5jeugq3SWy1JiE" name="Page-1">
        <mxGraphModel dx="3908" dy="3897" grid="1" gridSize="10" guides="1" tooltips="1" connect="1" arrows="1" fold="1" page="1" pageScale="1" pageWidth="827" pageHeight="1169" math="0" shadow="0">
            <root>
                <mxCell id="0"/>
                <mxCell id="1" parent="0"/>
                <mxCell id="38" value="" style="rounded=1;whiteSpace=wrap;html=1;" parent="1" vertex="1">
                    <mxGeometry x="405.5" y="45" width="100" height="80" as="geometry"/>
                </mxCell>
                <mxCell id="39" value="" style="rounded=1;whiteSpace=wrap;html=1;" parent="1" vertex="1">
                    <mxGeometry x="405.5" y="-300" width="100" height="80" as="geometry"/>
                </mxCell>
                <mxCell id="40" value="" style="rounded=1;whiteSpace=wrap;html=1;dashed=1;" parent="1" vertex="1">
                    <mxGeometry x="365.5" y="-160" width="560" height="160" as="geometry"/>
                </mxCell>
                <mxCell id="41" value="Admin" style="shape=umlActor;verticalLabelPosition=bottom;verticalAlign=top;html=1;outlineConnect=0;" parent="1" vertex="1">
                    <mxGeometry x="315.5" y="-290" width="30" height="60" as="geometry"/>
                </mxCell>
                <mxCell id="42" value="" style="rounded=1;whiteSpace=wrap;html=1;" parent="1" vertex="1">
                    <mxGeometry x="405.5" y="-120" width="100" height="80" as="geometry"/>
                </mxCell>
                <mxCell id="43" value="" style="rounded=1;whiteSpace=wrap;html=1;" parent="1" vertex="1">
                    <mxGeometry x="605.5" y="-120" width="110" height="80" as="geometry"/>
                </mxCell>
                <mxCell id="44" value="Photobooth" style="text;html=1;align=center;verticalAlign=middle;resizable=0;points=[];autosize=1;strokeColor=none;fillColor=none;" parent="1" vertex="1">
                    <mxGeometry x="380.5" y="-195" width="80" height="30" as="geometry"/>
                </mxCell>
                <mxCell id="45" value="Photographed" style="shape=umlActor;verticalLabelPosition=bottom;verticalAlign=top;html=1;outlineConnect=0;" parent="1" vertex="1">
                    <mxGeometry x="305.5" y="-120" width="30" height="60" as="geometry"/>
                </mxCell>
                <mxCell id="46" value="Smartphone&lt;br&gt;Browser" style="text;html=1;align=center;verticalAlign=middle;resizable=0;points=[];autosize=1;strokeColor=none;fillColor=none;" parent="1" vertex="1">
                    <mxGeometry x="410.5" y="-280" width="90" height="40" as="geometry"/>
                </mxCell>
                <mxCell id="47" value="iPad&lt;br&gt;Browser" style="text;html=1;align=center;verticalAlign=middle;resizable=0;points=[];autosize=1;strokeColor=none;fillColor=none;" parent="1" vertex="1">
                    <mxGeometry x="420.5" y="-100" width="70" height="40" as="geometry"/>
                </mxCell>
                <mxCell id="48" value="Backend" style="text;html=1;align=center;verticalAlign=middle;resizable=0;points=[];autosize=1;strokeColor=none;fillColor=none;" parent="1" vertex="1">
                    <mxGeometry x="625.5" y="-95" width="70" height="30" as="geometry"/>
                </mxCell>
                <mxCell id="49" value="Others" style="shape=umlActor;verticalLabelPosition=bottom;verticalAlign=top;html=1;outlineConnect=0;" parent="1" vertex="1">
                    <mxGeometry x="315.5" y="30" width="30" height="60" as="geometry"/>
                </mxCell>
                <mxCell id="50" value="Smartphone&lt;br&gt;Browser" style="text;html=1;align=center;verticalAlign=middle;resizable=0;points=[];autosize=1;strokeColor=none;fillColor=none;" parent="1" vertex="1">
                    <mxGeometry x="410.5" y="65" width="90" height="40" as="geometry"/>
                </mxCell>
                <mxCell id="51" value="" style="endArrow=classic;startArrow=classic;html=1;" parent="1" edge="1">
                    <mxGeometry width="50" height="50" relative="1" as="geometry">
                        <mxPoint x="505.5" y="-80" as="sourcePoint"/>
                        <mxPoint x="605.5" y="-80" as="targetPoint"/>
                    </mxGeometry>
                </mxCell>
                <mxCell id="52" value="Websocket&lt;br&gt;Bi-directional" style="text;html=1;align=center;verticalAlign=middle;resizable=0;points=[];autosize=1;strokeColor=none;fillColor=none;" parent="1" vertex="1">
                    <mxGeometry x="510.5" y="-115" width="90" height="40" as="geometry"/>
                </mxCell>
                <mxCell id="53" value="" style="endArrow=classic;startArrow=classic;html=1;exitX=1;exitY=0.5;exitDx=0;exitDy=0;entryX=0;entryY=0.5;entryDx=0;entryDy=0;" parent="1" source="38" target="43" edge="1">
                    <mxGeometry width="50" height="50" relative="1" as="geometry">
                        <mxPoint x="495.5" y="130" as="sourcePoint"/>
                        <mxPoint x="605.5" y="20" as="targetPoint"/>
                    </mxGeometry>
                </mxCell>
                <mxCell id="54" value="Websocket&lt;br&gt;Bi-directional" style="text;html=1;align=center;verticalAlign=middle;resizable=0;points=[];autosize=1;strokeColor=none;fillColor=none;" parent="1" vertex="1">
                    <mxGeometry x="585.5" y="30" width="90" height="40" as="geometry"/>
                </mxCell>
                <mxCell id="55" value="" style="endArrow=classic;startArrow=classic;html=1;exitX=0;exitY=0.5;exitDx=0;exitDy=0;entryX=1;entryY=0.5;entryDx=0;entryDy=0;" parent="1" source="43" target="39" edge="1">
                    <mxGeometry width="50" height="50" relative="1" as="geometry">
                        <mxPoint x="505.5" y="140" as="sourcePoint"/>
                        <mxPoint x="495.5" y="-300" as="targetPoint"/>
                    </mxGeometry>
                </mxCell>
                <mxCell id="56" value="Websocket&lt;br&gt;Bi-directional" style="text;html=1;align=center;verticalAlign=middle;resizable=0;points=[];autosize=1;strokeColor=none;fillColor=none;" parent="1" vertex="1">
                    <mxGeometry x="544.5" y="-225" width="90" height="40" as="geometry"/>
                </mxCell>
                <mxCell id="57" value="" style="endArrow=classic;html=1;" parent="1" edge="1">
                    <mxGeometry width="50" height="50" relative="1" as="geometry">
                        <mxPoint x="715.5" y="-96" as="sourcePoint"/>
                        <mxPoint x="788.5" y="-130" as="targetPoint"/>
                    </mxGeometry>
                </mxCell>
                <mxCell id="58" value="" style="rounded=1;whiteSpace=wrap;html=1;" parent="1" vertex="1">
                    <mxGeometry x="795.5" y="-140" width="100" height="50" as="geometry"/>
                </mxCell>
                <mxCell id="59" value="" style="rounded=1;whiteSpace=wrap;html=1;" parent="1" vertex="1">
                    <mxGeometry x="795.5" y="-70" width="100" height="50" as="geometry"/>
                </mxCell>
                <mxCell id="60" value="Printer" style="text;html=1;align=center;verticalAlign=middle;resizable=0;points=[];autosize=1;strokeColor=none;fillColor=none;" parent="1" vertex="1">
                    <mxGeometry x="815.5" y="-130" width="60" height="30" as="geometry"/>
                </mxCell>
                <mxCell id="61" value="Camera" style="text;html=1;align=center;verticalAlign=middle;resizable=0;points=[];autosize=1;strokeColor=none;fillColor=none;" parent="1" vertex="1">
                    <mxGeometry x="810.5" y="-60" width="70" height="30" as="geometry"/>
                </mxCell>
                <mxCell id="62" value="" style="endArrow=classic;html=1;entryX=0;entryY=0.5;entryDx=0;entryDy=0;exitX=1;exitY=0.5;exitDx=0;exitDy=0;" parent="1" source="43" target="59" edge="1">
                    <mxGeometry width="50" height="50" relative="1" as="geometry">
                        <mxPoint x="725.5" y="-70" as="sourcePoint"/>
                        <mxPoint x="805.5" y="-105" as="targetPoint"/>
                    </mxGeometry>
                </mxCell>
                <mxCell id="63" value="" style="endArrow=classic;html=1;dashed=1;" parent="1" edge="1">
                    <mxGeometry width="50" height="50" relative="1" as="geometry">
                        <mxPoint x="789.5" y="-112" as="sourcePoint"/>
                        <mxPoint x="715.5" y="-80" as="targetPoint"/>
                    </mxGeometry>
                </mxCell>
                <mxCell id="64" value="" style="endArrow=classic;html=1;dashed=1;" parent="1" edge="1">
                    <mxGeometry width="50" height="50" relative="1" as="geometry">
                        <mxPoint x="789.5" y="-28.999999999999773" as="sourcePoint"/>
                        <mxPoint x="715.5" y="-58" as="targetPoint"/>
                    </mxGeometry>
                </mxCell>
                <mxCell id="70" value="/admin" style="text;html=1;align=center;verticalAlign=middle;resizable=0;points=[];autosize=1;strokeColor=none;fillColor=none;" parent="1" vertex="1">
                    <mxGeometry x="425.5" y="-330" width="60" height="30" as="geometry"/>
                </mxCell>
                <mxCell id="71" value="/gallery" style="text;html=1;align=center;verticalAlign=middle;resizable=0;points=[];autosize=1;strokeColor=none;fillColor=none;" parent="1" vertex="1">
                    <mxGeometry x="425.5" y="15" width="60" height="30" as="geometry"/>
                </mxCell>
                <mxCell id="72" value="/home" style="text;html=1;align=center;verticalAlign=middle;resizable=0;points=[];autosize=1;strokeColor=none;fillColor=none;" parent="1" vertex="1">
                    <mxGeometry x="430.5" y="-150" width="60" height="30" as="geometry"/>
                </mxCell>
                <mxCell id="193" value="" style="rounded=1;whiteSpace=wrap;html=1;" parent="1" vertex="1">
                    <mxGeometry x="400.5" y="180" width="100" height="80" as="geometry"/>
                </mxCell>
                <mxCell id="194" value="Downloader" style="shape=umlActor;verticalLabelPosition=bottom;verticalAlign=top;html=1;outlineConnect=0;" parent="1" vertex="1">
                    <mxGeometry x="310.5" y="165" width="30" height="60" as="geometry"/>
                </mxCell>
                <mxCell id="195" value="Smartphone&lt;br&gt;Browser" style="text;html=1;align=center;verticalAlign=middle;resizable=0;points=[];autosize=1;strokeColor=none;fillColor=none;" parent="1" vertex="1">
                    <mxGeometry x="405.5" y="200" width="90" height="40" as="geometry"/>
                </mxCell>
                <mxCell id="196" value="/download" style="text;html=1;align=center;verticalAlign=middle;resizable=0;points=[];autosize=1;strokeColor=none;fillColor=none;" parent="1" vertex="1">
                    <mxGeometry x="410.5" y="150" width="80" height="30" as="geometry"/>
                </mxCell>
                <mxCell id="197" value="" style="endArrow=classic;startArrow=classic;html=1;exitX=1;exitY=0.5;exitDx=0;exitDy=0;entryX=0;entryY=0.5;entryDx=0;entryDy=0;" parent="1" source="193" target="43" edge="1">
                    <mxGeometry width="50" height="50" relative="1" as="geometry">
                        <mxPoint x="515.5" y="95" as="sourcePoint"/>
                        <mxPoint x="615.5" y="-70" as="targetPoint"/>
                    </mxGeometry>
                </mxCell>
                <mxCell id="198" value="Websocket&lt;br&gt;Bi-directional" style="text;html=1;align=center;verticalAlign=middle;resizable=0;points=[];autosize=1;strokeColor=none;fillColor=none;" parent="1" vertex="1">
                    <mxGeometry x="464.5" y="-5" width="90" height="40" as="geometry"/>
                </mxCell>
                <mxCell id="256" value="shell&lt;br&gt;request/response" style="text;html=1;align=center;verticalAlign=middle;resizable=0;points=[];autosize=1;strokeColor=none;fillColor=none;" vertex="1" parent="1">
                    <mxGeometry x="670.5" y="-165" width="120" height="40" as="geometry"/>
                </mxCell>
            </root>
        </mxGraphModel>
    </diagram>
</mxfile>
